<?xml version="1.0" encoding="UTF-8" standalone="no"?>
<svg
   height="380"
   viewBox="0 0 448.22223 448.49207"
   width="380"
   version="1.1"
   id="svg156"
   sodipodi:docname="jumbo.svg"
   inkscape:version="1.2.1 (9c6d41e410, 2022-07-14)"
   xmlns:inkscape="http://www.inkscape.org/namespaces/inkscape"
   xmlns:sodipodi="http://sodipodi.sourceforge.net/DTD/sodipodi-0.dtd"
   xmlns="http://www.w3.org/2000/svg"
   xmlns:svg="http://www.w3.org/2000/svg">
  <defs
     id="defs160" />
  <sodipodi:namedview
     id="namedview158"
     pagecolor="#ffffff"
     bordercolor="#000000"
     borderopacity="0.25"
     inkscape:showpageshadow="2"
     inkscape:pageopacity="0"
     inkscape:pagecheckerboard="0"
     inkscape:deskcolor="#d1d1d1"
     showgrid="false"
     inkscape:zoom="0.71106194"
     inkscape:cx="-36.565028"
     inkscape:cy="455.65651"
     inkscape:window-width="2880"
     inkscape:window-height="1740"
     inkscape:window-x="0"
     inkscape:window-y="0"
     inkscape:window-maximized="1"
     inkscape:current-layer="svg156" />
  <rect
     style="font-variation-settings:'wght' 400;opacity:1;fill:#d9d9d9;fill-opacity:1;stroke:#000000;stroke-width:0.983911"
     id="rect802"
     width="467.81067"
     height="467.55115"
     x="-7.1543746"
     y="-5.1855917"
     ry="1.6970912" />
  <path
     d="m 363.50649,250.91465 -8.43,-4.89 -0.1,9.44 v 2.49 1.06 c 0,0.93 0,2.09 -0.13,3.09 a 38.1,38.1 0 0 1 -6.29,-5.13 c -1.52,-1.45 -5.61,-5.85 -9.57,-10.4 a 133.41,133.41 0 0 0 6.85,-18.08 l 3,-0.92 2.91,-13.56 -2.09,-2.21 q 0.44,-2.76 0.75,-5.56 l 2.39,-1.7 0.58,-12 -2.3,-1.79 c 0,-1.41 -0.1,-2.81 -0.19,-4.22 l 2.16,-2 -1.94,-11.63 -2.36,-1 q -0.32,-1.37 -0.66,-2.73 l 1.59,-2 -4,-12.12 -3,-0.51 c -0.4,-0.84 -0.83,-1.68 -1.26,-2.51 l 0.93,-3.25 -5.65,-9.27 -3.62,-0.28 c -0.36,-0.47 -0.73,-0.92 -1.09,-1.37 l 0.2,-3.87 -7.53,-8 -2.67,0.16 h -0.69 l -1.79,-1.71 0.33,-3.59 -10.76,-7.3 -2.45,1 c -5.72,-3.65999 -12.78,-8.99998 -13,-15.999975 v -0.14 c 0,-0.809995 0.24,-0.999995 0.44,-1.219995 1.79,-1.68 7.32,-2.110005 10.62,-1.78 l 0.92,0.09 0.91,-0.2 c 1.16,-0.260005 11.36,-2.740001 15.31,-10.000001 a 12.53,12.53 0 0 0 1.57,-6.09 14.34,14.34 0 0 0 -0.89,-4.86 c -2.48,-6.79 -7,-8.48 -9.91,-9.59 a 9.09,9.09 0 0 1 -4.52,-3 c 0,-0.94 0.1,-1.94 0.1,-2.8 0,-13.14 -4.28,-17.38 -8.6,-19.72 -2.44,-1.33 -11,-5.43 -17.81,-2.54 a 11.4,11.4 0 0 0 -6.67,7.78 c -0.74,2.58 -2.05,5.2 -6.24,10.55 a 47.7,47.7 0 0 0 -21.58,26.11 55.09,55.09 0 0 0 -3,17.449996 c 0,11.449985 4,24.439975 16.88,36.809975 a 62.33,62.33 0 0 0 5.4,4.65 h -0.2 l -7.84,5.77 c -5.3,-3.12 -13.33,-7.88 -15.33,-9.21 -14.29,-9.53 -39.9,0.88 -40.16,1 -4.58,1.9 -13.48,7 -17.57,9.34 -6.85,-1.94 -27.13,-7.26 -45.8,-8.06 -18.67,-0.8 -50.700025,15.22 -74.510038,31.35 -0.28,0.19 -28.49,20.19 -31.31,28.22 a 15.06,15.06 0 0 0 -0.88,5 c 0,7 5.1,14 15.24,21 l 0.37,0.26 c 2.4,1.65 8,9 11.93,15.19 0.45,1.27 15.830003,45.16 15.830003,45.16 l 3.41,3.86 2.999995,3.78 c 4.06001,5 24.51004,30.34 28.49004,33.94 11.13,10.1 19.09,14.64 26.62,15.17 a 21.88,21.88 0 0 0 10.45,-2.34 l 0.77,0.65 c 26.28,22.26 42.37,48 50.65,81.14 l 1.55,6.21 6,-2.26 c 26.81,-10.13 79,-56.37 90.16,-113.36 a 49.19,49.19 0 0 0 18,-13.73 c 3.28,1.77 6.27,3.28 8.47,4.38 l 0.53,0.27 c 26.46,13.27 42.45,10.46 51.2,5.77 8.24,-4.42 11.85,-11.45 12.47,-16.56 1.45,-11.55 -4.14,-29.24 -24.59,-41.08 z"
     fill="#d1d3d4"
     id="path112" />
  <path
     d="m 360.65649,255.84465 c -0.28,4.3 2.37,22.94 -16.06,5.24 -2.11,-2 -7.83,-8.24 -12.35,-13.6 16.24,-32.15 19.51,-74.34 -2.3,-103.11 -6.16,-8.13 -12.07,-13.88 -19.39,-20.49 -3.48,-3.13 -22.11,-10.76 -22.6,-25.129975 -0.34,-10.849996 17.33,-8.999996 17.33,-8.999996 0,0 15.51,-3.49 11.89,-13.42 -3.11,-8.54 -9.12,-3.66 -14.83,-12.73 1.06,-15.46 -3.09,-18 -5.47,-19.29 -2.38,-1.29 -13.88,-6.64 -16.29,1.8 -1.1,3.83 -3,7.25 -7.82,13.26 -0.35,0.44 -14.39,6.72 -20.07,23.66 -5.26,15.639996 -3.58,32.899971 12.45,48.339971 11.48,11.06 20.23,11.18 24.69,16.7 a 9.19,9.19 0 0 1 -0.38,8.09 c -6.19,-7.75 -15.07,-11.55 -20.79,-10.61 l -9.71,7.2 c 0,0 -15.68,-9.17 -18.84,-11.28 -9.83,-6.55 -29.19,-0.82 -34.82,1.51 -5.63,2.33 -19,10.23 -19,10.23 0,0 -24.87,-7.59 -46.8,-8.52 -15.75,-0.68 -45.460015,12.85 -71.140038,30.29 -3.89,2.6 -27.4,20.31 -29.15,25.36 -3.25,9.28 9.38,17.47 12.59,19.68 4.95,3.41 13.85,17.35 13.85,17.35 l 15.679998,44.76 2.760005,3.12 3.130005,3.89 c 0,0 24.00003,29.8 27.87003,33.29 9.85,8.93 16.92,13.26 23.2,13.71 7.44,0.53 18,-8 24.09,-13.11 -2.15,7 -9.59,12.75 -9.59,12.75 25.81,21.86 43.6,48.53 52.49,84.1 27.46,-10.37 78,-57.73 87.14,-112 10.68,-4.17 17.52,-10.94 21.4,-17.19 5.12,3 10.15,5.47 13.21,7 38.72,19.42 54.33,2.95 55.47,-6.39 0.91,-7.55 -1.79,-23.83 -21.84,-35.46 z"
     fill="#5091cd"
     id="path114" />
  <path
     d="m 342.12649,175.25465 3.88,1.65 0.93,5.56 -4.33,4.11"
     fill="#5091cd"
     id="path116" />
  <path
     d="m 342.53649,191.38465 4.99,3.84 -0.3,6.28 -5.81,4.13"
     fill="#5091cd"
     id="path118" />
  <path
     d="m 340.09649,210.01465 5.44,5.74 -1.58,7.36 -7.69,2.33"
     fill="#5091cd"
     id="path120" />
  <path
     d="m 334.94649,158.96465 6.43,1.08 1.95,5.96 -3.61,4.58"
     fill="#5091cd"
     id="path122" />
  <path
     d="m 328.21649,144.50465 5.19,0.41 2.83,4.65 -1.93,6.79"
     fill="#5091cd"
     id="path124" />
  <path
     d="m 316.61649,132.15465 5.78,-0.36 4.03,4.28 -0.31,6.35"
     fill="#5091cd"
     id="path126" />
  <path
     d="m 301.95649,122.74465 6.53,-2.74 5.42,3.68 -0.93,10.08"
     fill="#5091cd"
     id="path128" />
  <path
     d="m 263.12649,263.55465 c -5.61,-10.13 -19.61,-12.32 -26.38,-1.84 -4.77,7.38 -1.4,19.79 7.39,27.5 a 46,46 0 0 0 30.64,10.86 c 7.62,-0.27 19.13,-2.48 24.58,-13.64 -11.91,4.11 -26.65,-1 -32.71,-5 -5.45,-3.63 -6.86,-12.92 -3.52,-17.88 z"
     fill="#ffffff"
     id="path130" />
  <path
     d="m 364.58649,269.01465 c 0.62,8.54 -0.44,13.68 -4.61,14.53 -6.58,1.33 -26.34,-18.54 -32,-24.64 -3.18,4.06 -11.65,14.9 -15.23,18.31 a 218,218 0 0 0 22.11,14.32 c 7.34,4.06 31.28,12.88 38.55,0.47 4.01,-6.78 -0.55,-16.75 -8.82,-22.99 z"
     fill="#ffffff"
     id="path132" />
  <path
     d="m 225.67649,194.82465 a 7.11,7.11 0 0 1 -3.82,0.94 3.77,3.77 0 0 1 -0.32,-7.15 c -0.44,-1.06 -0.86,-2.21 -1.34,-3.48 -10.1,0.4 -5.52,15.71 8.28,12 a 26.77,26.77 0 0 1 -2.8,-2.31 z"
     fill="#ffffff"
     id="path134" />
  <path
     d="m 287.04649,186.15465 c -0.17,0.48 -0.35,0.94 -0.54,1.4 a 3.28,3.28 0 0 1 1.48,2.33 3.91,3.91 0 0 1 -1.61,4.29 2.65,2.65 0 0 1 -3.38,-0.13 c -0.65,1 -1.32,2.07 -2,3.12 8.7,2.98 13.58,-10.75 6.05,-11.01 z"
     fill="#ffffff"
     id="path136" />
  <g
     fill="#d1d3d4"
     id="g154"
     transform="translate(32.956452,35.754679)">
    <path
       d="m 256.65,40.28 c 7.87,4.09 17,0 16.73,-2.34 0.44,0.26 12.19,2.09 -0.73,7.4 -8.09,2.87 -14.81,-0.99 -16,-5.06 z"
       id="path138" />
    <path
       d="m 150.61,129.57 c -1.73,2.86 -3.35,12.06 -2.72,16.91 -6.06,1.2 -20.59,-6.74 -28.63,-11.59 -7.06,-4.26 -20.84,-13 -40.09,-6.18 21.04,-12.71 39.26,-15.71 71.44,0.86 z"
       id="path140" />
    <path
       d="m 172.61,155.06 c -1.81,10.59 10.25,19.12 18.58,18.46 -5.05,4.51 -13.88,2.71 -19.83,-0.12 -9.34,-4.43 -14,-14.33 1.3,-18.59"
       id="path142" />
    <path
       d="M 111.27,183.64 C 88.66,175 51,172.44 33.69,183.1 c 15.05,-1 45.28,-1.48 70.42,10.93 -20.13,-3.71 -51.47,-0.68 -57.54,3.55 12.47,-0.82 53.39,7 69.38,17.07 -17.37,-6 -53.44,-7.85 -62.23,-2.82 l 9.52,25.73 c 0,0 31.59,43.62 39.82,44.19 15.38,1.07 42.13,-24.58 45.89,-32.76 3.62,-7.9 4.4,-15.35 -1.13,-26.55 -4.02,-9.6 -26.05,-34.78 -36.55,-38.8 z"
       id="path144" />
    <path
       d="m 186.16,357.68 c -3.27,-12.43 -12.17,-30.26 -22.83,-40.36 0,0 18,12.94 32.35,9.55 0,0 -5.65,-1.59 -7.42,-14.91 0,0 24.77,17.45 41.54,-6.3 0,0 -14.19,33.83 -43.64,52.02 z"
       id="path146" />
    <path
       d="m 281.35,139.47 a 79.42,79.42 0 0 0 0.42,-15.86 l -4.31,-0.8 3.79,-3.38 a 36.17,36.17 0 0 0 -5.63,-14.73 l -5.54,1.24 2.74,-4.8 a 39.45,39.45 0 0 0 -12,-8.62 l -4.79,2.25 0.6,-4.39 c -17.1,-9.16 -26.32,-20.45 -19.33,-38.66 2,-5.25 9.57,-14.33 15.42,-16 v -0.14 a 21.5,21.5 0 0 0 9.34,-13 c 0,0 -0.22,-7.83 -2.76,-8.12 -2.23,-0.25 -4.65,0.31 -5.39,2.26 -1.38,3.69 -5.51,11.28 -7.87,14 -10.18,2.94 -15.54,10.7 -18.28,19.61 -4.48,14.59 -2.35,32.92 18.94,44.41 9.34,5 22.78,7.66 22.74,29.74 0,16.38 -8.08,32.26 -12.51,50 a 8.39,8.39 0 0 1 -2.65,-0.92 32,32 0 0 1 -3.65,-3 c -2.86,-1.54 -7.22,-2.72 -13.4,-1.5 -12.7,2.51 -19.24,15.79 -19.24,15.79 6.86,-35.89 21.58,-28.21 27.18,-23.73 a 36.54,36.54 0 0 0 -4.77,-6.5 c -1.84,-1.9 -6.64,-5.73 -10.52,-4.76 -5,1.24 -8.69,7.86 -8.69,7.86 0,0 0.21,-12.46 5.69,-15.42 6.52,-3.5 13.83,6.51 16.86,11.32 4.17,-2.44 5.62,-7.57 6.14,-9.28 0,0 0,-17 6.55,-7.21 -0.21,-5.22 -5.82,-9.14 -8.45,-9.2 -6.55,-9.48 -14.61,-5.71 -15.87,8.1 -5.4,-3.57 -12.32,-4.5 -18.47,5.91 a 29.82,29.82 0 0 0 -11,-18.72 C 194,116.29 184.15,121.11 183,122 c -1.76,1.27 -12.52,3.28 -17.64,14.85 9,-11 18.94,-10.67 25.73,-5.93 1.92,4.14 1.74,10.81 3.43,16.5 1.69,5.69 7.53,9.49 11,11.61 a 17.87,17.87 0 0 0 2,1.08 c -0.25,1.12 -0.93,4.46 -0.93,4.46 -3.87,18 -23.8,20.78 -27.79,27.21 -6.44,7.56 -1.53,20.71 -0.1,30.29 a 56.52,56.52 0 0 1 -10.93,-9.82 44.11,44.11 0 0 0 3.23,21.2 c 6.8,16.65 26,16.72 26,16.72 -8.11,-7.38 -7.72,-15.18 -6.51,-20.62 2.24,-10 12.72,-20.89 27.54,-17 5.36,2.7 18,7.31 22.48,6.79 1.77,-0.2 4.15,-3.06 6.38,-5.83 a 28.6,28.6 0 0 1 -2.14,-9.26 31.87,31.87 0 0 0 5.89,4.92 6.69,6.69 0 0 1 0.7,-0.58 61.42,61.42 0 0 0 11.29,-10 69.89,69.89 0 0 1 -4.07,-7.84 c 2.79,1.52 5.24,2.69 7.39,3.63 a 55,55 0 0 0 7.07,-14.07 c -2,-2.28 -3.92,-4.55 -4.47,-5.42 l 6,0.19 c 1.18,-4.47 2,-9 2.85,-13.62 l -4.52,-3.7 5.37,-1 q 0.48,-2.66 1,-5.32 c 0.54,-2.62 1,-5.12 1.36,-7.53 l -4.38,-3.12 z"
       id="path148" />
    <path
       d="m 213,226.18 c 0,0 -3.47,11.87 9.35,22.9 11.45,9.92 30.65,8.56 30.65,8.56 0,0 -16.25,8.44 -34.13,-3.9 C 200.51,241.09 204,226.16 213,226.18 Z"
       id="path150" />
    <path
       d="m 337.06,253.82 c 2.18,-5.47 -1.68,-12.78 -1.68,-12.78 2.32,10.77 -3.19,15 -9.61,14.32 -17,-1.74 -35.22,-18.91 -35.22,-18.91 l -4.4,5.05 c 23.12,17.22 36,17.6 39.36,17.89 5.72,0.49 10.29,-2.39 11.55,-5.57 z"
       id="path152" />
  </g>
</svg>
